<?xml version="1.0" encoding="UTF-8"?>
<svg width="555px" height="489px" viewBox="0 0 555 489" version="1.1" xmlns="http://www.w3.org/2000/svg" xmlns:xlink="http://www.w3.org/1999/xlink">
    <!-- Generator: Sketch 50.2 (55047) - http://www.bohemiancoding.com/sketch -->
    <title>Artboard 1</title>
    <desc>Created with Sketch.</desc>
    <defs>
        <polygon id="path-1" points="0 0.1256 115.4428 0.1256 115.4428 123.2286 0 123.2286"></polygon>
    </defs>
    <g id="Artboard-1" stroke="none" stroke-width="1" fill="none" fill-rule="evenodd">
        <path d="M461.6641,289.6751 C461.6641,187.974236 379.218964,105.5291 277.5181,105.5291 C175.817438,105.5291 93.3731,187.974033 93.3731,289.6751 C93.3731,391.376167 175.817438,473.8211 277.5181,473.8211 C379.218964,473.8211 461.6641,391.375964 461.6641,289.6751 Z M476.6641,289.6751 C476.6641,399.660236 387.503236,488.8211 277.5181,488.8211 C167.533143,488.8211 78.3731,399.660414 78.3731,289.6751 C78.3731,179.689786 167.533143,90.5291 277.5181,90.5291 C387.503236,90.5291 476.6641,179.689964 476.6641,289.6751 Z" id="Stroke-1" fill="#000000" fill-rule="nonzero"></path>
        <path d="M321.6899,337.6614 C327.4569,340.2354 332.1669,342.3384 338.1329,345.0024 C328.0359,333.0344 328.0359,333.0344 321.6899,337.6614 Z M242.2559,270.7784 C242.0979,271.6754 241.9399,272.5704 241.7819,273.4674 C247.0169,282.9354 253.3879,272.5884 259.1359,273.3684 L242.2559,270.7784 Z M303.2859,371.3574 L311.6059,371.3574 C309.4989,373.6424 307.8089,375.4744 306.1199,377.3064 C314.2489,377.6784 312.9129,378.2844 315.2479,372.3394 C318.2989,369.9484 320.0429,368.5824 321.7859,367.2174 C319.8329,365.4434 317.9659,362.2564 315.9139,362.1314 C304.6449,361.4444 293.3319,361.4534 282.0319,361.3884 C280.7289,361.3804 279.4199,362.3884 277.6819,363.1024 C279.9599,366.0694 281.7649,368.4204 283.5819,370.7864 C288.4069,367.0594 297.4229,369.7144 302.2109,375.4244 C302.6059,373.9324 302.9239,372.7284 303.2859,371.3574 Z M288.1459,233.7234 L288.1459,244.6484 C278.7279,235.8884 283.8289,226.5574 287.0479,216.9854 C270.0509,221.1024 256.2669,228.8204 244.5879,239.7074 C245.3479,242.5894 245.4339,245.3444 246.7259,247.3024 C249.2689,251.1554 252.1449,257.2034 255.4849,257.6294 C263.0899,258.5984 270.6059,260.2204 278.0939,261.0704 C287.2729,262.1144 292.8829,268.6934 300.6759,271.4364 C301.5819,271.7554 302.1289,274.0244 302.2599,275.4434 C302.6959,280.1744 297.5479,288.1984 293.9489,289.8774 C291.4299,288.1654 288.5339,285.1614 287.5459,285.6944 C281.2039,289.1134 277.9489,284.3714 274.1649,281.1674 C269.5019,286.4244 267.8359,287.0634 260.1939,285.4454 C256.3479,284.6314 253.4239,285.0514 251.0439,289.8114 C256.6089,291.0524 261.7379,293.0624 266.8779,293.0924 C271.7949,293.1194 276.7249,291.0864 281.6479,289.9584 C281.8429,290.5624 282.0379,291.1684 282.2329,291.7724 C281.2769,292.5364 280.4359,293.6494 279.3459,294.0094 C268.6279,297.5424 258.1339,299.2434 248.1069,291.5804 C245.6749,289.7224 242.0029,289.4964 238.9129,288.4884 C237.6949,288.0914 236.5069,287.6044 233.8089,286.6034 C237.0829,285.2134 238.6639,284.5414 238.9629,284.4144 C236.3939,280.1524 233.9899,276.1664 231.7459,272.4454 C234.4469,269.4694 237.3189,266.9044 239.4279,263.8174 C241.6609,260.5484 243.1689,256.7824 245.5809,252.0904 C243.4479,251.0214 240.4469,249.5194 237.4509,248.0194 C229.7099,263.0814 224.8499,265.8304 211.7969,262.9074 C203.8319,279.0124 201.4209,296.3264 201.2889,314.0624 C201.2689,316.6104 202.4169,319.4054 203.7259,321.6824 C207.4009,328.0694 211.1339,334.4734 215.4789,340.4044 C217.4789,343.1364 220.9599,344.7804 223.7699,346.9184 C225.9189,343.7234 228.9499,345.6504 231.3639,346.0554 C233.1699,346.3574 235.2639,349.7814 236.2309,349.3844 C239.6479,347.9794 243.8489,351.3494 246.8349,347.1024 C248.1309,345.2584 250.9689,344.0664 253.3299,343.4834 C259.9819,341.8434 266.9079,341.1584 273.3919,339.0634 C275.8259,338.2774 277.3419,334.6444 279.2759,332.3104 C277.8339,331.1634 276.4339,329.9564 274.9309,328.8934 C274.1689,328.3554 273.2229,328.0784 271.3049,327.1994 C276.3549,325.1584 279.5239,323.8774 282.6939,322.5974 L282.5059,324.3514 C285.7829,325.1214 289.0229,326.1554 292.3429,326.5984 C297.8149,327.3284 304.1469,326.1524 308.6449,328.5454 C315.2479,332.0574 321.5139,332.2854 327.5529,329.7434 C331.7559,327.9744 333.9369,329.0984 335.7199,331.9974 C340.8149,340.2774 345.5679,348.7674 350.6899,357.5784 C357.2629,357.1984 359.4799,356.1394 359.7359,348.6834 C360.3549,330.7464 360.0859,312.7724 359.8909,294.8164 C359.8619,292.1634 358.2909,289.5254 357.4339,286.8814 C356.8149,286.8924 356.1969,286.9034 355.5789,286.9154 C354.5839,290.6574 353.5889,294.3984 352.3089,299.2154 C348.6229,296.4924 345.2739,294.0174 341.8849,291.5144 C339.3409,293.4464 322.4459,292.9904 320.1719,290.8104 C320.0339,290.6794 319.8569,290.5174 319.8329,290.3504 C319.1429,285.5154 318.0519,280.6874 317.9149,275.8354 C317.7779,271.0154 322.6749,271.5174 325.1999,271.4314 C333.1939,271.1544 341.0139,264.3564 349.1839,270.5204 C350.9379,271.8444 352.6179,273.2654 354.4499,274.7344 C354.5389,273.4734 354.2419,271.6624 354.7469,271.4004 C361.9109,267.6954 359.5999,260.8764 360.3509,255.0574 C361.4399,246.6284 357.4589,239.6024 354.0589,232.4664 C350.2469,224.4664 346.4829,216.4134 342.0939,208.7284 C338.0489,201.6444 331.3329,200.0294 323.4949,201.1284 C311.2639,202.8454 300.9289,207.5704 293.9099,218.1904 C294.5169,216.5494 295.1249,214.9074 295.7319,213.2664 C289.2159,217.5244 286.2239,223.5624 285.2779,230.6614 C284.9049,233.4644 285.1939,233.5984 288.1459,233.7234 Z M288.2769,127.6894 L309.2339,127.6894 C315.2469,128.9714 321.2129,130.5674 327.2829,131.4744 C343.7539,133.9354 356.5929,150.4474 355.1799,166.8584 C354.4489,175.3484 357.8199,183.8214 363.8239,188.8624 C373.0889,196.6434 377.1139,206.1404 378.7709,217.2964 C380.1609,226.6654 381.7539,236.0754 382.0309,245.5034 C382.1379,249.1154 379.2539,253.1114 376.9749,256.4074 C374.9849,259.2854 371.8019,261.3074 369.3839,263.9274 C367.1809,266.3144 365.2759,268.9804 363.2749,271.5524 C359.4159,276.5134 357.5399,281.7614 360.0619,288.0864 C364.6279,299.5394 365.6939,311.5594 365.8389,323.8024 C365.9039,329.2804 366.7029,334.9534 368.3459,340.1674 C372.1859,352.3494 373.2299,364.2014 367.5279,376.1014 C366.2989,378.6674 365.4129,381.5114 364.9779,384.3214 C363.6389,392.9674 362.2079,401.3514 356.0949,408.3964 C351.2949,413.9304 347.4209,420.2674 343.1549,426.2624 C337.1759,434.6624 331.2159,443.0754 325.2479,451.4834 C322.0739,450.2824 319.4769,449.6474 317.8619,450.6294 C306.1349,457.7614 293.5159,457.9924 280.6579,455.6364 C277.4669,455.0514 274.5579,452.7834 271.5949,451.1504 C269.7399,450.1294 268.1149,448.6754 266.2339,447.7154 C257.1339,443.0664 247.7969,438.8494 238.8959,433.8534 C227.5959,427.5124 216.5639,420.6794 205.5659,413.8184 C202.0009,411.5944 198.4099,409.0424 195.6979,405.8934 C190.2789,399.5994 185.5559,392.7114 180.3639,386.2134 C174.4749,378.8444 171.9789,370.8644 171.6339,361.1484 C171.2469,350.2154 177.3129,339.8444 173.6199,328.8674 C173.4899,328.4814 174.1839,327.8774 174.3279,327.3314 C175.4769,322.9754 176.5859,318.6094 177.9479,313.3104 C180.6379,313.3464 183.1579,310.9944 181.5849,306.7734 C180.4059,303.6094 177.6069,298.3804 175.9539,298.5374 C169.7029,299.1314 171.1319,304.9984 171.1389,310.9394 C169.2969,308.7784 168.1149,307.8364 167.5119,306.6094 C164.7809,301.0524 166.7799,296.1064 169.6749,291.2624 C170.9689,289.0954 172.4899,286.2824 169.0789,285.0844 C168.1209,284.7474 165.3149,287.5214 164.5059,289.3714 C163.0069,292.7994 162.3539,296.5984 161.3479,300.2434 C160.5549,291.2804 160.9379,282.5284 161.3789,273.7784 C161.5159,271.0734 161.9149,268.3804 162.0219,265.6744 C163.0509,239.8464 160.8619,213.5074 174.2689,189.6614 C174.9149,188.5134 174.9649,187.0454 175.4209,185.7724 C177.9389,178.7484 179.1839,170.7794 183.4149,165.0004 C187.5109,159.4064 194.7769,156.1794 200.5019,151.7214 C214.2439,141.0204 229.7989,134.7404 246.9599,132.2164 C249.9229,131.7804 253.0349,130.2924 255.7849,130.8204 C266.9999,132.9724 277.5299,129.4814 288.2769,127.6894 Z" id="Fill-3" fill="#000000"></path>
        <path d="M338.5132,304.5637 C337.7062,306.1587 337.0722,307.4137 336.3732,308.7937 C332.9682,310.2197 320.9542,302.2787 317.5122,296.0997 C321.6372,293.6997 321.6372,293.6997 338.5132,304.5637" id="Fill-5" fill="#000000"></path>
        <g id="Group-9" transform="translate(0.000000, 69.821000)">
            <mask id="mask-2" fill="white">
                <use xlink:href="#path-1"></use>
            </mask>
            <g id="Clip-8"></g>
            <path d="M63.5708,17.8546 C71.0098,10.3626 74.8718,6.8176 82.8288,0.1256 C92.4528,22.8486 103.2118,44.6516 115.4428,66.0836 C108.5078,72.9006 105.1828,76.5316 98.8858,84.2386 C84.7998,76.9766 70.3168,70.4646 55.6358,64.5016 C65.3408,77.1186 75.6768,89.2586 86.4158,101.0036 C80.7088,109.4486 78.0338,113.8936 73.1068,123.2286 C48.8418,117.9246 24.7678,114.4206 -0.0002,112.5526 C3.9218,103.3636 8.3808,94.2266 13.2248,85.4876 C30.4268,90.6686 47.3648,96.3526 64.2088,102.5946 C51.5598,89.2486 39.5568,75.5286 27.9908,61.2386 C34.2948,51.8856 37.6258,47.4186 44.5948,38.8996 C61.3568,46.2146 77.6538,54.1266 93.7608,62.7786 C83.2178,48.0906 73.1898,33.1616 63.5708,17.8546" id="Fill-7" fill="#000000" mask="url(#mask-2)"></path>
        </g>
        <path d="M154.6157,88.344 C147.6687,76.249 140.7217,64.154 133.7747,52.059 C132.8517,50.452 131.0867,50.373 128.5117,51.892 C125.6587,53.574 124.2427,54.437 121.4327,56.207 C118.7987,57.866 118.0087,59.507 119.0267,61.056 C126.6857,72.717 134.3447,84.377 142.0047,96.038 C143.0227,97.589 144.6207,97.64 146.8267,96.251 C149.1797,94.768 150.3657,94.046 152.7547,92.637 C154.9107,91.365 155.5397,89.953 154.6157,88.344 M108.6757,50.551 C116.7187,45.183 120.8357,42.677 129.2237,38.022 C137.2257,33.005 148.5217,29.698 154.4587,38.952 C160.9737,52.893 167.4887,66.834 174.0037,80.775 C177.4887,88.233 173.9347,94.154 163.8577,99.746 C157.4267,103.315 154.2697,105.236 148.1037,109.351 C138.3637,115.851 131.2787,116.478 126.1847,110.003 C116.6637,97.9 107.1417,85.797 97.6207,73.693 C90.7677,64.804 101.6877,54.705 108.6757,50.551" id="Fill-10" fill="#000000"></path>
        <path d="M204.6899,69.8074 C214.6559,66.7584 219.7189,65.5014 229.9209,63.5224 C230.8349,68.0974 231.2909,70.3844 232.2049,74.9584 C217.6879,78.1524 203.9379,82.1834 189.9969,87.3404 C181.1049,65.5074 172.2129,43.6734 163.3209,21.8394 C172.6819,18.1014 177.4349,16.4324 187.0399,13.4944 C192.9229,32.2654 198.8059,51.0364 204.6899,69.8074" id="Fill-12" fill="#000000"></path>
        <path d="M286.0083,11.7776 C274.6673,11.6826 263.6733,11.9926 252.3573,12.7266 C253.0313,20.4676 253.3693,24.3386 254.0443,32.0796 C264.5603,31.1916 269.8443,30.9946 280.3943,31.0986 L280.2813,42.0876 C270.1593,41.9876 265.0893,42.1756 254.9993,43.0286 C255.8253,52.5036 256.6523,61.9776 257.4783,71.4516 C249.7833,72.1016 245.9453,72.5826 238.3213,73.8546 C234.3323,50.6526 230.3443,27.4506 226.3563,4.2486 C246.0963,0.8436 266.3323,-0.4314 286.3433,0.1266 C286.2093,4.7866 286.1423,7.1176 286.0083,11.7776" id="Fill-14" fill="#000000"></path>
        <path d="M332.7241,37.0193 C334.1151,30.3203 334.8091,26.9703 336.2001,20.2713 C336.5761,18.4603 335.3241,17.2513 332.4371,16.7133 C327.3041,15.7573 324.7271,15.3353 319.5601,14.6053 C318.2541,23.5713 317.6011,28.0543 316.2951,37.0203 C321.0601,37.6933 323.4361,38.0823 328.1701,38.9643 C330.8321,39.4603 332.3481,38.8323 332.7241,37.0193 M296.3651,0.5673 C311.8221,1.8063 326.8381,3.8323 342.0701,6.7403 C351.3111,8.1813 361.8861,13.0753 360.1751,23.8543 C357.7391,32.0803 356.5201,36.1933 354.0831,44.4193 C351.7471,52.3033 344.5741,54.2753 332.2801,51.6713 C325.2551,50.1833 321.7171,49.5603 314.6161,48.5573 C313.1941,58.3143 312.4841,63.1923 311.0631,72.9493 C303.4661,71.8763 299.6451,71.4933 291.9931,71.0333 C293.4501,47.5443 294.9081,24.0563 296.3651,0.5673" id="Fill-16" fill="#000000"></path>
        <path d="M380.2856,67.2024 C386.0416,69.6684 388.8876,70.9924 394.5016,73.8214 C396.7356,63.7514 398.6556,53.5414 400.2346,43.3484 C393.3436,51.0624 386.6586,59.0544 380.2856,67.2024 M388.6366,98.2364 C390.0166,93.1684 390.6776,90.6214 391.9346,85.5064 C384.5016,81.6414 380.7086,79.8784 373.0136,76.6884 C369.8546,80.9164 368.3046,83.0474 365.2636,87.3414 C358.1376,84.4954 354.5196,83.2234 347.2096,80.9824 C361.0206,60.1884 375.9426,40.7784 392.4336,22.0384 C402.4746,26.2894 412.0796,30.7634 421.7956,35.7144 C418.0566,60.4454 412.7666,84.3804 405.6586,108.3604 C399.0026,103.9954 395.5906,101.9704 388.6366,98.2364" id="Fill-18" fill="#000000"></path>
        <path d="M484.9668,116.7815 C478.3818,109.3235 474.9458,105.7835 467.8368,99.0815 C470.8768,95.8295 472.3968,94.2035 475.4378,90.9515 C476.7038,89.5975 476.2208,87.8485 473.9468,85.7745 C471.7948,83.8115 470.7088,82.8465 468.5158,80.9485 C466.1098,78.8645 464.2908,78.5705 463.1028,79.9945 C453.8378,91.1115 444.5718,102.2275 435.3068,113.3435 C434.6408,114.1425 434.4058,114.8875 434.5938,115.5795 C434.7818,116.2715 435.4358,117.0915 436.5488,118.0545 C438.3738,119.6355 439.2778,120.4385 441.0698,122.0725 C442.0898,123.0025 442.9488,123.5265 443.6608,123.6335 C444.3718,123.7395 445.0828,123.4175 445.7938,122.6585 C448.7428,119.5045 450.2168,117.9265 453.1668,114.7725 C459.7278,120.9575 462.8978,124.2245 468.9758,131.1065 C465.3298,134.3725 463.5068,136.0055 459.8608,139.2715 C453.7838,144.7155 446.8408,142.6545 438.1878,134.3205 C432.9558,129.2805 430.2538,126.8845 424.7048,122.3425 C415.6028,114.8895 413.0378,108.4215 417.7088,101.7255 C426.5408,89.0655 435.3728,76.4055 444.2048,63.7455 C450.6768,54.5925 463.4688,62.0175 469.4758,67.4955 C476.7128,73.4205 480.2378,76.5455 487.0628,83.1205 C493.2398,88.4985 502.6718,100.6435 494.3298,108.3935 C490.5848,111.7485 488.7128,113.4265 484.9668,116.7815" id="Fill-20" fill="#000000"></path>
        <path d="M555.2588,182.3738 C541.2788,179.2278 527.5048,176.9188 513.2568,175.3928 C506.2098,187.4678 498.8818,199.2248 490.4688,210.4108 C486.5818,201.4278 484.4558,197.1168 479.8858,188.8558 C487.3428,177.3448 494.0318,165.3408 499.9398,152.9638 C513.8558,152.3618 527.5928,153.0798 541.4548,154.2568 C546.5258,163.3198 551.1848,172.8218 555.2588,182.3738 M457.6558,155.6438 C475.9238,140.7418 494.1898,125.8378 512.4578,110.9358 C519.2178,119.3618 522.4488,123.7748 528.5658,133.0008 C509.0458,146.1878 489.5258,159.3738 470.0058,172.5608 C465.3158,165.4868 462.8388,162.1038 457.6558,155.6438" id="Fill-22" fill="#000000"></path>
    </g>
</svg>